# xmcd CD database file
#
# Track frame offsets:
# 150
# 1485
# 4230
# 6302
# 8268
# 10390
# 12530
# 14652
# 17685
# 22709
# 25097
# 29149
# 32007
# 34590
# 37572
# 42208
# 44116
# 46293
# 49088
# 54258
# 59021
# 61721
# 66608
# 69523
# 86977
# 89758
# 91815
# 93803
# 95781
# 98011
# 100024
# 105273
# 107945
# 112180
# 115126
# 117760
# 120691
# 125362
# 127741
# 130686
# 136323
# 141303
# 143996
# 148923
#
# Disc length: 2024 seconds
# Revision: 2
# Processed by: cddbd v1.5.2PL0 Copyright (c) Steve Scherf et al.
# Submitted via: MusicBin 0.4
#
DISCID=5407e62c
DTITLE=Joe Carr - Mel Bay Presents Western Swing Guitar Style
DYEAR=1997
DGENRE=Instructional
TTITLE0=Tuning Note
TTITLE1=Sally Goodin 1,2,3
TTITLE2=Leather Britches
TTITLE3=Durang's Hornpipe
TTITLE4=Sally Johnson
TTITLE5=Dusty Miller
TTITLE6=Sally Goodin 4
TTITLE7=Chord Embellishment
TTITLE8=Columbus Stockade Blues
TTITLE9=Cowtown
TTITLE10=Wesphalia Waltz
TTITLE11=Kind Of Love
TTITLE12=San Antonio Rag
TTITLE13=Ballad
TTITLE14=Blues
TTITLE15=Ida Red
TTITLE16=Corrina
TTITLE17=Beaumont Rag
TTITLE18=Lily
TTITLE19=Sugar
TTITLE20=Time/Just A Closer
TTITLE21=South
TTITLE22=Pipeline
TTITLE23=Open and Closed Chords
TTITLE24=Sally Goodin 1,2,3
TTITLE25=Leather Britches
TTITLE26=Durang's Hornpipe
TTITLE27=Sally Johnson
TTITLE28=Dusty Miller
TTITLE29=Sally Goodin 4
TTITLE30=Columbus Stockade Blues
TTITLE31=Cowtown
TTITLE32=Wesphalia Waltz
TTITLE33=Kind Of Love
TTITLE34=San Antonio Rag
TTITLE35=Ballad
TTITLE36=Blues
TTITLE37=Corrina
TTITLE38=Beaumont Rag
TTITLE39=Lily
TTITLE40=Sugar
TTITLE41=Time/Just A Closer
TTITLE42=South
TTITLE43=Pipeline
EXTD=
EXTT0=
EXTT1=
EXTT2=
EXTT3=
EXTT4=
EXTT5=
EXTT6=
EXTT7=
EXTT8=
EXTT9=
EXTT10=
EXTT11=
EXTT12=
EXTT13=
EXTT14=
EXTT15=
EXTT16=
EXTT17=
EXTT18=
EXTT19=
EXTT20=
EXTT21=
EXTT22=
EXTT23=
EXTT24=
EXTT25=
EXTT26=
EXTT27=
EXTT28=
EXTT29=
EXTT30=
EXTT31=
EXTT32=
EXTT33=
EXTT34=
EXTT35=
EXTT36=
EXTT37=
EXTT38=
EXTT39=
EXTT40=
EXTT41=
EXTT42=
EXTT43=
PLAYORDER=
